<svg width="121" height="121" viewBox="0 0 121 121" fill="none" xmlns="http://www.w3.org/2000/svg">
<path d="M74.3919 60.2303L117.528 17.195C119.417 15.306 120.478 12.744 120.478 10.0726C120.478 7.40117 119.417 4.83917 117.528 2.95019C115.639 1.06122 113.077 0 110.405 0C107.734 0 105.172 1.06122 103.283 2.95019L60.2474 46.0858L17.2121 2.95019C15.3231 1.06122 12.7611 -1.99036e-08 10.0897 0C7.41829 1.99036e-08 4.85629 1.06122 2.96731 2.95019C1.07834 4.83917 0.0171199 7.40117 0.0171198 10.0726C0.0171198 12.744 1.07834 15.306 2.96731 17.195L46.103 60.2303L2.96731 103.266C2.02707 104.198 1.28079 105.308 0.771498 106.53C0.262209 107.753 0 109.064 0 110.388C0 111.712 0.262209 113.023 0.771498 114.246C1.28079 115.468 2.02707 116.578 2.96731 117.51C3.89988 118.451 5.00938 119.197 6.23181 119.706C7.45425 120.216 8.76543 120.478 10.0897 120.478C11.414 120.478 12.7252 120.216 13.9476 119.706C15.17 119.197 16.2795 118.451 17.2121 117.51L60.2474 74.3748L103.283 117.51C104.215 118.451 105.325 119.197 106.547 119.706C107.77 120.216 109.081 120.478 110.405 120.478C111.729 120.478 113.041 120.216 114.263 119.706C115.485 119.197 116.595 118.451 117.528 117.51C118.468 116.578 119.214 115.468 119.723 114.246C120.233 113.023 120.495 111.712 120.495 110.388C120.495 109.064 120.233 107.753 119.723 106.53C119.214 105.308 118.468 104.198 117.528 103.266L74.3919 60.2303Z" fill="white"/>
</svg>
