<svg class="img-fluid" id="outputsvg" xmlns="http://www.w3.org/2000/svg" style="transform: matrix(1.88245, 0, 0, 1.88245, 0, 0); transform-origin: 50% 50%; cursor: move; max-height: none; transition: transform 200ms ease-in-out 0s;" width="46" height="48" viewBox="0 0 460 480"><g id="l3fNDIAVKEmGyRhAY6uhCXn" fill="rgba(169,139,193, 0)" style="transform: none;"><g style="transform: none;"><path id="pdfloBaBm" d="M140 456 c0 -57 12 -85 41 -95 27 -9 41 -31 19 -31 -5 0 -10 -7 -10 -15 0 -8 -4 -15 -10 -15 -5 0 -10 -16 -10 -35 0 -29 4 -35 23 -36 12 0 16 -3 10 -6 -8 -2 -13 -22 -13 -44 0 -28 -4 -39 -15 -39 -10 0 -15 -11 -15 -35 0 -24 5 -35 15 -35 8 0 15 -8 15 -17 0 -10 7 -26 14 -35 11 -15 31 -18 135 -18 l121 0 0 240 0 240 -160 0 -160 0 0 -24z"></path></g></g><g id="l3vA3ADANpviSiqy2wknCrk" fill="rgba(160,148,203,0)" style="transform: none;"><g style="transform: none;"><path id="p15rInj9nt" d="M0 240 l0 -240 120 0 c119 0 120 0 120 23 0 13 -5 28 -12 35 -9 9 -6 18 14 39 14 16 28 43 32 62 6 34 6 34 -14 16 -30 -27 -50 -5 -21 24 12 12 26 21 31 21 6 0 10 7 10 15 0 10 -15 17 -42 22 -24 3 -37 8 -30 11 6 2 12 10 12 17 0 18 25 26 39 12 8 -8 11 -3 11 19 0 33 -29 67 -67 78 -13 4 -22 10 -21 14 0 4 -3 22 -7 40 l-7 32 -84 0 -84 0 0 -240z"></path></g></g><g id="l4GWcI6cPNsUnokTHRocuVq" fill="rgb(255,255,255)" style="transform: none;"><g style="transform: none;"><path id="p12myXSdGU" d="M200 373 c0 -10 21 -39 47 -65 l47 -48 -121 0 c-94 0 -122 -3 -126 -14 -3 -8 -3 -17 0 -20 4 -3 63 -6 132 -6 l125 0 -52 -53 c-49 -50 -66 -87 -40 -87 15 0 158 140 158 155 0 15 -143 155 -158 155 -6 0 -12 -8 -12 -17z"></path></g></g></svg>