<svg width="50" height="50" viewBox="0 0 50 50" fill="none" xmlns="http://www.w3.org/2000/svg">
<rect width="50" height="50" rx="25" fill="url(#paint0_linear_43_2)"/>
<path d="M29.3516 7.67188C29.4818 7.76953 29.5632 8.37174 29.5957 9.47852C29.6608 10.5527 29.6771 11.9525 29.6445 13.6777C29.6445 15.403 29.612 17.3561 29.5469 19.5371C29.4818 21.6855 29.4004 23.8828 29.3027 26.1289C29.2051 28.375 29.0749 30.5885 28.9121 32.7695C28.7819 34.918 28.6517 36.8385 28.5215 38.5312C28.3913 40.1914 28.2448 41.5423 28.082 42.584C27.9518 43.6257 27.8216 44.1628 27.6914 44.1953C27.4635 44.2604 27.2031 44.1628 26.9102 43.9023C26.6172 43.6419 26.3405 43.3327 26.0801 42.9746C25.8197 42.6165 25.5755 42.2259 25.3477 41.8027C25.1523 41.3796 25.0384 41.0215 25.0059 40.7285C24.778 36.8874 24.599 33.5182 24.4688 30.6211C24.3711 27.724 24.2897 25.2826 24.2246 23.2969C24.1595 20.9857 24.127 18.9674 24.127 17.2422C23.7038 17.7956 23.3132 18.2513 22.9551 18.6094C22.6296 18.9674 22.4017 19.1628 22.2715 19.1953C22.0762 19.1953 21.7832 19.0163 21.3926 18.6582C21.0345 18.3001 20.6764 17.877 20.3184 17.3887C19.9928 16.9004 19.7161 16.4121 19.4883 15.9238C19.2604 15.4355 19.179 15.0775 19.2441 14.8496C19.2767 14.6868 19.472 14.4264 19.8301 14.0684C20.1882 13.6777 20.6113 13.2546 21.0996 12.7988C21.6204 12.3431 22.1576 11.8874 22.7109 11.4316C23.2969 10.9759 23.834 10.5853 24.3223 10.2598C24.7129 9.9668 25.1686 9.65755 25.6895 9.33203C26.2103 8.97396 26.7148 8.64844 27.2031 8.35547C27.6914 8.0625 28.1309 7.85091 28.5215 7.7207C28.9121 7.55794 29.1888 7.54167 29.3516 7.67188Z" fill="white"/>
<defs>
<linearGradient id="paint0_linear_43_2" x1="-10.497" y1="24.5933" x2="49.8502" y2="50.3509" gradientUnits="userSpaceOnUse">
<stop stop-color="#D16BA5"/>
<stop offset="0.51" stop-color="#86A8E7"/>
<stop offset="1" stop-color="#5FFBF1"/>
</linearGradient>
</defs>
</svg>
