<svg width="50" height="50" viewBox="0 0 50 50" fill="none" xmlns="http://www.w3.org/2000/svg">
<rect width="50" height="50" rx="25" fill="url(#paint0_linear_43_2000)"/>
<path d="M26.8398 29.3535C26.5143 28.8327 26.1237 28.4258 25.668 28.1328C25.2448 27.8073 24.8053 27.5794 24.3496 27.4492C23.8939 27.2865 23.4382 27.2051 22.9824 27.2051C22.5592 27.1725 22.2012 27.1725 21.9082 27.2051C21.5827 27.2702 21.2897 27.1237 21.0293 26.7656C20.7689 26.4076 20.5736 26.0007 20.4434 25.5449C20.3457 25.0566 20.2969 24.5846 20.2969 24.1289C20.3294 23.6406 20.4596 23.3151 20.6875 23.1523C21.0781 22.8268 21.6315 22.4525 22.3477 22.0293C23.0964 21.6061 23.8125 21.1504 24.4961 20.6621C25.2122 20.1413 25.8307 19.5716 26.3516 18.9531C26.8724 18.3346 27.1328 17.6673 27.1328 16.9512C27.1328 15.9746 27.0514 15.0957 26.8887 14.3145C26.7585 13.5007 26.5957 12.8008 26.4004 12.2148C26.2051 11.6289 25.9935 11.1732 25.7656 10.8477C25.5703 10.4896 25.4238 10.278 25.3262 10.2129C25.2285 10.1152 25.0495 10.0827 24.7891 10.1152C24.5286 10.1152 24.252 10.1478 23.959 10.2129C23.666 10.2454 23.3893 10.3105 23.1289 10.4082C22.901 10.4733 22.7708 10.5221 22.7383 10.5547C22.6732 10.6198 22.6081 11.0267 22.543 11.7754C22.4779 12.4915 22.3802 13.2891 22.25 14.168C22.1523 15.0469 22.0384 15.8607 21.9082 16.6094C21.778 17.3581 21.6152 17.7812 21.4199 17.8789C21.0293 18.0742 20.5898 17.9277 20.1016 17.4395C19.6458 16.9186 19.2227 16.3001 18.832 15.584C18.6367 15.2259 18.4414 14.7539 18.2461 14.168C18.0833 13.582 17.9368 12.9961 17.8066 12.4102C17.709 11.7917 17.6276 11.222 17.5625 10.7012C17.4974 10.1803 17.4974 9.77344 17.5625 9.48047C17.5951 9.22005 18.002 8.87826 18.7832 8.45508C19.5645 7.99935 20.5573 7.57617 21.7617 7.18555C22.9661 6.76237 24.3008 6.42057 25.7656 6.16016C27.2305 5.89974 28.6628 5.80208 30.0625 5.86719C30.5182 5.89974 30.9089 6.16016 31.2344 6.64844C31.5924 7.13672 31.8691 7.77148 32.0645 8.55273C32.2923 9.30143 32.4551 10.1641 32.5527 11.1406C32.6829 12.1172 32.748 13.11 32.748 14.1191C32.6829 15.2259 32.4225 16.349 31.9668 17.4883C31.5762 18.4648 30.9414 19.5391 30.0625 20.7109C29.2161 21.8828 28.0117 23.0221 26.4492 24.1289C28.207 24.3568 29.5417 24.7962 30.4531 25.4473C31.3646 26.0983 32.0319 26.7982 32.4551 27.5469C32.9434 28.3932 33.1875 29.3372 33.1875 30.3789C33.1224 31.388 32.9596 32.446 32.6992 33.5527C32.4388 34.627 32.1458 35.6361 31.8203 36.5801C31.4948 37.5241 31.1693 38.3379 30.8438 39.0215C30.5182 39.7051 30.2904 40.112 30.1602 40.2422C30.0299 40.4049 29.6393 40.6491 28.9883 40.9746C28.3698 41.3001 27.6536 41.6257 26.8398 41.9512C26.0586 42.2767 25.2773 42.5534 24.4961 42.7812C23.7148 43.0417 23.1289 43.1882 22.7383 43.2207C22.3477 43.2207 21.9245 42.9766 21.4688 42.4883C21.013 42.0326 20.5898 41.4466 20.1992 40.7305C19.8411 40.0143 19.5156 39.2656 19.2227 38.4844C18.9622 37.7031 18.8158 37.0195 18.7832 36.4336C18.7181 35.8477 18.6693 35.278 18.6367 34.7246C18.6367 34.1387 18.653 33.6341 18.6855 33.2109C18.7507 32.7878 18.8483 32.446 18.9785 32.1855C19.1087 31.9251 19.304 31.7949 19.5645 31.7949C19.7598 31.7949 19.9876 31.8926 20.248 32.0879C20.541 32.2832 20.834 32.5273 21.127 32.8203C21.4199 33.1133 21.6966 33.4225 21.957 33.748C22.25 34.0736 22.4941 34.3828 22.6895 34.6758C22.7871 34.8711 22.9499 35.2292 23.1777 35.75C23.4056 36.2383 23.6497 36.7428 23.9102 37.2637C24.1706 37.752 24.431 38.1914 24.6914 38.582C24.9844 38.9727 25.2611 39.168 25.5215 39.168C25.7493 39.168 25.9609 38.9727 26.1562 38.582C26.3516 38.1914 26.5143 37.7031 26.6445 37.1172C26.7747 36.4987 26.8887 35.8314 26.9863 35.1152C27.084 34.3665 27.1491 33.6341 27.1816 32.918C27.2142 32.3971 27.2467 31.974 27.2793 31.6484C27.3118 31.2904 27.3118 30.9811 27.2793 30.7207C27.2793 30.4603 27.2305 30.2324 27.1328 30.0371C27.0677 29.8418 26.9701 29.6139 26.8398 29.3535Z" fill="white"/>
<defs>
<linearGradient id="paint0_linear_43_2000" x1="-10.497" y1="24.5933" x2="49.8502" y2="50.3509" gradientUnits="userSpaceOnUse">
<stop stop-color="#D16BA5"/>
<stop offset="0.51" stop-color="#86A8E7"/>
<stop offset="1" stop-color="#5FFBF1"/>
</linearGradient>
</defs>
</svg>
