<svg width="50" height="50" viewBox="0 0 50 50" fill="none" xmlns="http://www.w3.org/2000/svg">
<rect width="50" height="50" rx="25" fill="url(#paint0_linear_43_1998)"/>
<path d="M23.1289 37.459C24.7891 37.2962 26.1888 37.166 27.3281 37.0684C28.4674 36.9382 29.3789 36.8405 30.0625 36.7754C30.7786 36.6777 31.2832 36.6289 31.5762 36.6289C31.9017 36.6289 32.097 36.6452 32.1621 36.6777C32.2923 36.8405 32.2923 37.166 32.1621 37.6543C32.0319 38.11 31.8366 38.6146 31.5762 39.168C31.3158 39.7214 31.0228 40.2585 30.6973 40.7793C30.4043 41.3001 30.1602 41.6582 29.9648 41.8535C29.8997 41.9186 29.6393 41.9674 29.1836 42C28.7279 42.0651 28.1582 42.1139 27.4746 42.1465C26.8236 42.179 26.0911 42.2116 25.2773 42.2441C24.4961 42.2767 23.7474 42.293 23.0312 42.293C22.3151 42.3255 21.6966 42.3418 21.1758 42.3418C20.6549 42.3418 20.3132 42.3255 20.1504 42.293C19.9225 42.2604 19.6947 42.1302 19.4668 41.9023C19.2715 41.6419 19.0762 41.3652 18.8809 41.0723C18.7181 40.7467 18.5716 40.4049 18.4414 40.0469C18.3112 39.6888 18.2298 39.3633 18.1973 39.0703C18.1647 38.9727 18.2461 38.6146 18.4414 37.9961C18.6367 37.3451 18.8646 36.5638 19.125 35.6523C19.418 34.7409 19.7435 33.7643 20.1016 32.7227C20.4596 31.6484 20.8014 30.623 21.127 29.6465C21.485 28.6699 21.7943 27.8073 22.0547 27.0586C22.3151 26.2773 22.4941 25.7402 22.5918 25.4473C23.1126 23.9824 23.6009 22.5339 24.0566 21.1016C24.5449 19.6367 24.9518 18.3184 25.2773 17.1465C25.6354 15.9421 25.8958 14.9329 26.0586 14.1191C26.2214 13.2728 26.2376 12.752 26.1074 12.5566C26.0098 12.4264 25.7331 12.4427 25.2773 12.6055C24.8542 12.7357 24.3171 12.9798 23.666 13.3379C23.0475 13.6634 22.3802 14.0378 21.6641 14.4609C20.9805 14.8841 20.3132 15.291 19.6621 15.6816C19.0436 16.0723 18.5065 16.4141 18.0508 16.707C17.5951 16.9674 17.3184 17.0977 17.2207 17.0977C17.0579 17.1302 16.9277 16.9186 16.8301 16.4629C16.765 16.0072 16.7324 15.4863 16.7324 14.9004C16.7324 14.3145 16.765 13.7448 16.8301 13.1914C16.8952 12.6055 16.9928 12.1986 17.123 11.9707C17.1882 11.8079 17.4323 11.5312 17.8555 11.1406C18.3112 10.75 18.8646 10.3105 19.5156 9.82227C20.1667 9.33398 20.8828 8.82943 21.6641 8.30859C22.4453 7.78776 23.2103 7.33203 23.959 6.94141C24.7402 6.55078 25.4564 6.24154 26.1074 6.01367C26.791 5.78581 27.3607 5.70443 27.8164 5.76953C28.1094 5.83464 28.5326 6.07878 29.0859 6.50195C29.6719 6.89258 30.2415 7.34831 30.7949 7.86914C31.3483 8.35742 31.8366 8.86198 32.2598 9.38281C32.7155 9.87109 32.9759 10.2129 33.041 10.4082C33.0736 10.571 32.9596 11.0918 32.6992 11.9707C32.4714 12.8171 32.1296 13.8913 31.6738 15.1934C31.2507 16.4629 30.7461 17.8952 30.1602 19.4902C29.5742 21.0527 28.9557 22.6478 28.3047 24.2754C27.6862 25.903 27.0677 27.498 26.4492 29.0605C25.8633 30.623 25.3262 32.0228 24.8379 33.2598C24.3496 34.4642 23.9427 35.457 23.6172 36.2383C23.3242 36.987 23.1615 37.3939 23.1289 37.459Z" fill="white"/>
<defs>
<linearGradient id="paint0_linear_43_1998" x1="-10.497" y1="24.5933" x2="49.8502" y2="50.3509" gradientUnits="userSpaceOnUse">
<stop stop-color="#D16BA5"/>
<stop offset="0.51" stop-color="#86A8E7"/>
<stop offset="1" stop-color="#5FFBF1"/>
</linearGradient>
</defs>
</svg>
